<?xml version="1.0" encoding="UTF-8"?>
<svg version="1.1" xmlns="http://www.w3.org/2000/svg" width="500" height="150">
<path d="M0 0 C165 0 330 0 500 0 C500 49.5 500 99 500 150 C335 150 170 150 0 150 C0 100.5 0 51 0 0 Z " fill="#FEFDFE" transform="translate(0,0)"/>
<path d="M0 0 C2 2 2 2 2.1953125 4.3828125 C2.17210937 5.28773437 2.14890625 6.19265625 2.125 7.125 C2.10695313 8.03507812 2.08890625 8.94515625 2.0703125 9.8828125 C2.04710937 10.58148438 2.02390625 11.28015625 2 12 C5.4731265 10.21081362 7.87563278 8.14934334 10.5 5.3125 C13.63228582 2.06395029 13.63228582 2.06395029 16.875 1.5 C19 2 19 2 20 3 C20.35194328 6.00948064 20.33064833 7.51160959 18.6105957 10.05224609 C16.52585225 12.17618536 14.43817375 14.29187673 12.3125 16.375 C11.59126953 17.12394531 10.87003906 17.87289062 10.12695312 18.64453125 C9.42119141 19.34707031 8.71542969 20.04960938 7.98828125 20.7734375 C7.02208862 21.73902588 7.02208862 21.73902588 6.03637695 22.72412109 C4 24 4 24 1.39526367 23.89306641 C-2.12306784 22.58126774 -3.17968532 20.16869593 -5 17 C-7.90802461 19.21928194 -9.95312762 20.92969143 -12 24 C-8.7 26.31 -5.4 28.62 -2 31 C-3.27782817 37.19255192 -4.91531828 43.03022961 -7 49 C-3.37 49 0.26 49 4 49 C4 43.39 4 37.78 4 32 C10.6 32 17.2 32 24 32 C24 24.08 24 16.16 24 8 C40.83 8 57.66 8 75 8 C75 34.4 75 60.8 75 88 C38.7 88 2.4 88 -35 88 C-35 61.30434783 -35 61.30434783 -27.125 51.375 C-24.6879338 48.18850914 -24.6879338 48.18850914 -25.0625 44.625 C-25.5265625 42.830625 -25.5265625 42.830625 -26 41 C-29.63738232 26.20976159 -29.63738232 26.20976159 -25.3125 18.8125 C-19.7449691 10.64449684 -10.62239775 -2.43429948 0 0 Z " fill="#9435EA" transform="translate(420,37)"/>
<path d="M0 0 C5.58624543 4.40771264 8.97288869 9.59324012 10.0390625 16.7109375 C10.99373443 30.56731867 10.10564583 42.11588204 0.7890625 53.2109375 C-7.10120736 61.28470201 -15.72194523 64.71802962 -26.9609375 65.0859375 C-32.88240422 65.0102638 -36.31841049 64.38177281 -40.9609375 60.7109375 C-44.52619471 53.58042307 -41.71193839 41.96166386 -40.67700195 34.20898438 C-39.72850368 26.70310447 -39.7779896 19.26262039 -39.9609375 11.7109375 C-41.2809375 11.7109375 -42.6009375 11.7109375 -43.9609375 11.7109375 C-44.29863809 8.08065621 -44.24689603 6.18386891 -42.3359375 3.0234375 C-32.23754571 -6.80920714 -11.53569753 -7.58322746 0 0 Z " fill="#060606" transform="translate(47.9609375,46.2890625)"/>
<path d="M0 0 C3.5625 0.375 3.5625 0.375 5.4375 1.875 C10.3147522 12.71333821 7.75747643 27.91602955 6.5625 39.375 C7.23345703 38.56095703 7.23345703 38.56095703 7.91796875 37.73046875 C15.52587403 28.72751048 15.52587403 28.72751048 20.91796875 28.1015625 C25.91557507 27.9096308 29.61434391 28.0074551 33.5625 31.375 C38.10930972 36.02360397 38.23313542 39.74960973 38.16430664 46.06591797 C37.80301384 54.68407312 34.42652676 62.10370795 28.0625 68 C22.5260061 72.11905454 17.29965817 72.90969509 10.5625 72.375 C8.87258021 71.4148183 7.20040712 70.42144066 5.5625 69.375 C2.52590505 69.63527957 1.7524142 70.1850858 -0.4375 72.375 C-3.0625 72 -3.0625 72 -5.4375 71.375 C-5.04558584 66.99174955 -4.64513675 62.62874557 -3.92578125 58.28515625 C-1.43324171 42.85262423 0.50303735 24.50577772 -5.66015625 9.79296875 C-6.59623191 6.881256 -6.37398372 5.26290006 -5.4375 2.375 C-3.4375 0.375 -3.4375 0.375 0 0 Z " fill="#070707" transform="translate(264.4375,38.625)"/>
<path d="M0 0 C4.79321466 3.72348435 7.02092238 7.16557804 7.78515625 13.1484375 C8.15702037 21.93968673 6.79622298 28.78148222 0.98828125 35.5546875 C-4.4118246 40.55533346 -11.21644947 42.55529717 -18.44921875 42.29296875 C-23.02749303 41.54499216 -26.37847236 39.30868041 -29.5 35.875 C-32.24849136 31.14148711 -32.10683437 26.25373923 -31.625 20.9375 C-30.84965589 18.38607695 -29.86573247 16.31557056 -28.625 13.9375 C-29.945 13.6075 -31.265 13.2775 -32.625 12.9375 C-33.0625 10.3125 -33.0625 10.3125 -32.625 6.9375 C-25.16291357 -2.32348226 -10.60959453 -6.03134549 0 0 Z " fill="#080808" transform="translate(242.625,69.0625)"/>
<path d="M0 0 C1.60584961 -0.01836914 1.60584961 -0.01836914 3.24414062 -0.03710938 C4.27345703 -0.03904297 5.30277344 -0.04097656 6.36328125 -0.04296875 C7.29052002 -0.04707764 8.21775879 -0.05118652 9.1730957 -0.05541992 C11.80015913 0.19838415 13.43223468 0.8542878 15.6875 2.1875 C15.61748565 6.75545274 15.52901308 11.32258618 15.42504883 15.88989258 C15.39225444 17.43634773 15.36408917 18.98290956 15.34106445 20.52954102 C14.8410351 53.26550545 14.8410351 53.26550545 4.76171875 63.05859375 C-2.53265302 68.78694221 -9.11639885 70.14169986 -18.3125 69.1875 C-22.69304578 67.94198133 -25.53136914 65.92957432 -28.8125 62.8125 C-31.30045523 56.79994152 -31.83455547 49.24878948 -29.51171875 43.05078125 C-28.5 41.5 -28.5 41.5 -26.3125 39.1875 C-25.838125 38.548125 -25.36375 37.90875 -24.875 37.25 C-23.3125 36.1875 -23.3125 36.1875 -20.625 36.5 C-19.861875 36.726875 -19.09875 36.95375 -18.3125 37.1875 C-19.1875 41.9375 -19.1875 41.9375 -20.3125 44.1875 C-20.4546988 48.02686768 -20.49004676 51.50766639 -19.3125 55.1875 C-13.22300339 56.98368245 -6.04432809 57.46978665 -0.25 54.75 C5.093158 47.68324265 5.1071686 39.59895129 4.9375 31.0625 C4.92976563 29.49435547 4.92976563 29.49435547 4.921875 27.89453125 C4.86716746 22.4853228 4.46003071 17.595215 3.6875 12.1875 C-6.2125 12.5175 -16.1125 12.8475 -26.3125 13.1875 C-26.3125 6.1875 -26.3125 6.1875 -24.375 3.3125 C-17.7743153 -1.26756694 -7.79751985 0.00478082 0 0 Z " fill="#090909" transform="translate(186.3125,41.8125)"/>
<path d="M0 0 C4.21856264 3.86160734 6.78699334 7.92823 7.37109375 13.609375 C7.77378606 27.08332967 7.77378606 27.08332967 3.6171875 32.390625 C-3.99513162 39.96616963 -10.87246961 42.16947221 -21.546875 42.36328125 C-24.49647877 41.92647687 -25.18192007 41.308498 -27 39 C-27.37231445 37.04907227 -27.37231445 37.04907227 -27.36328125 34.81640625 C-27.36424805 33.56186646 -27.36424805 33.56186646 -27.36523438 32.28198242 C-27.34783203 31.38455322 -27.33042969 30.48712402 -27.3125 29.5625 C-27.30412109 28.64122314 -27.29574219 27.71994629 -27.28710938 26.77075195 C-27.12307895 17.12166242 -26.15181197 7.57443703 -25 -2 C-16.69777196 -4.22851629 -7.62488252 -4.08475849 0 0 Z " fill="#FBFBFB" transform="translate(43,57)"/>
<path d="M0 0 C2.69774259 1.72761841 4.18169276 3.53425789 5.9609375 6.203125 C6.39209484 11.54947597 6.44121521 14.88278026 2.9609375 19.203125 C-1.74254009 23.42419463 -5.1735287 25.48680752 -11.5390625 25.390625 C-12.4775 25.38417969 -13.4159375 25.37773438 -14.3828125 25.37109375 C-16.74526835 25.22170316 -18.77622915 24.87023389 -21.0390625 24.203125 C-20.71729214 27.17950079 -20.51443823 28.75646324 -18.29296875 30.84375 C-14.40400797 33.18925841 -10.4368195 32.85464456 -6.0390625 32.203125 C-4.00425128 31.31758644 -4.00425128 31.31758644 -2.2265625 30.140625 C0.9609375 28.203125 0.9609375 28.203125 3.8984375 28.453125 C4.5790625 28.700625 5.2596875 28.948125 5.9609375 29.203125 C5.40249401 34.22911642 1.6310851 36.74848032 -1.9765625 39.890625 C-7.56483997 43.44680157 -13.57262993 44.04212416 -20.0390625 43.203125 C-24.35539742 41.64086945 -27.71076432 39.21297186 -30.0390625 35.203125 C-32.21180792 28.68488875 -32.40608633 19.05042663 -29.4765625 12.703125 C-23.15870796 2.45614538 -12.27375956 -4.79664167 0 0 Z " fill="#070707" transform="translate(96.0390625,67.796875)"/>
<path d="M0 0 C1.83712367 0.89193686 3.41713592 1.89760467 4.8671875 3.34765625 C5.2421875 5.66015625 5.2421875 5.66015625 4.8671875 8.34765625 C2.6796875 10.72265625 2.6796875 10.72265625 -0.1328125 12.34765625 C-2.90568499 12.15420003 -4.66366804 11.58222848 -7.1328125 10.34765625 C-9.17336255 10.27700008 -11.21615507 10.26343649 -13.2578125 10.28515625 C-14.35351562 10.29417969 -15.44921875 10.30320312 -16.578125 10.3125 C-17.42117188 10.32410156 -18.26421875 10.33570312 -19.1328125 10.34765625 C-19.1328125 11.66765625 -19.1328125 12.98765625 -19.1328125 14.34765625 C-18.03582031 14.52941406 -16.93882812 14.71117188 -15.80859375 14.8984375 C-14.35407283 15.15180566 -12.8996508 15.40574198 -11.4453125 15.66015625 C-10.72408203 15.77810547 -10.00285156 15.89605469 -9.25976562 16.01757812 C-3.91196112 16.96992687 -0.06054679 18.41992196 3.8671875 22.34765625 C4.33326907 27.94063506 4.06415616 31.55220327 0.8671875 36.34765625 C-2.73091276 39.98607136 -6.54654153 43.04683621 -11.71875 43.6484375 C-17.27631429 43.67178861 -21.37380073 43.55998919 -26.1328125 40.34765625 C-27.0609375 39.72890625 -27.0609375 39.72890625 -28.0078125 39.09765625 C-29.80729408 36.29846268 -29.31556642 33.57630886 -29.1328125 30.34765625 C-24.60944801 29.09116612 -24.60944801 29.09116612 -22.33984375 30.3125 C-19.4706353 31.65823494 -17.22625632 31.57817407 -14.0703125 31.53515625 C-13.02746094 31.52871094 -11.98460937 31.52226563 -10.91015625 31.515625 C-8.04666642 31.4624859 -8.04666642 31.4624859 -5.1328125 30.34765625 C-4.8028125 29.35765625 -4.4728125 28.36765625 -4.1328125 27.34765625 C-5.22980469 27.16589844 -6.32679688 26.98414062 -7.45703125 26.796875 C-8.91155217 26.54350684 -10.3659742 26.28957052 -11.8203125 26.03515625 C-12.54154297 25.91720703 -13.26277344 25.79925781 -14.00585938 25.67773438 C-18.27896813 24.9167698 -21.58828209 24.01098615 -25.1328125 21.34765625 C-27.61407019 17.62576972 -27.7722698 14.65989396 -27.1328125 10.34765625 C-22.09154355 -0.36504026 -10.97277228 -3.35614097 0 0 Z " fill="#080808" transform="translate(339.1328125,67.65234375)"/>
<path d="M0 0 C5.03166532 3.62747965 7.02913015 8.03608519 8 14 C8.33183692 19.99734533 8.17476545 25.99971956 8 32 C13.79363532 30.47731379 17.70707995 29.35099509 21 24 C22.60120256 20.79759487 22.50567808 17.47491606 22 14 C20.71203834 11.97048465 19.38442 9.96498322 18 8 C17.875 5.875 17.875 5.875 19 4 C22.46631478 0.94634174 24.14411537 -0.02806179 28.8125 0.125 C29.864375 0.41375 30.91625 0.7025 32 1 C34.91892504 6.83785008 32.73368454 14.88568078 31.10546875 20.87109375 C27.81402439 30.18716065 22.71978992 38.21104183 14.01171875 43.12109375 C10.83896717 44.50724735 8.40757804 44.42594725 5 44 C1.46722451 40.48004765 0.46101744 37.77319763 -0.0625 32.875 C-1.06817916 21.3139918 -1.06817916 21.3139918 -7 12 C-7.99 11.67 -8.98 11.34 -10 11 C-10.48275862 4.72413793 -10.48275862 4.72413793 -8.375 1.5625 C-5.24316508 -0.49791771 -3.68455227 -0.6767545 0 0 Z " fill="#070707" transform="translate(117,67)"/>
<path d="M0 0 C3.875 0.875 3.875 0.875 5 2 C5.10571371 4.57562419 5.14678123 7.12457175 5.14526367 9.70092773 C5.15030159 10.91064743 5.15030159 10.91064743 5.15544128 12.14480591 C5.16498015 14.8244173 5.16689586 17.50396641 5.16796875 20.18359375 C5.17117928 22.03825405 5.17454319 23.8929141 5.17805481 25.74757385 C5.18405343 29.64072253 5.18589396 33.53384898 5.18530273 37.42700195 C5.18520107 42.42538678 5.19885475 47.42362969 5.21607494 52.42198086 C5.22717182 56.25401977 5.22922266 60.08602413 5.22869301 63.91807747 C5.22987657 65.76133781 5.23431924 67.60459894 5.24202538 69.44784355 C5.25177886 72.02189052 5.24896576 74.59562618 5.24291992 77.16967773 C5.24853943 77.93702744 5.25415894 78.70437714 5.25994873 79.49497986 C5.22831554 84.77168446 5.22831554 84.77168446 3 87 C0.9375 86.75 0.9375 86.75 -1 86 C-2.52972145 82.94055709 -2.14730428 79.74187644 -2.14526367 76.38500977 C-2.14862228 75.59949738 -2.1519809 74.81398499 -2.15544128 74.00466919 C-2.16496362 71.40023226 -2.16689501 68.79585952 -2.16796875 66.19140625 C-2.17118033 64.38541131 -2.17454433 62.57941663 -2.17805481 60.77342224 C-2.18404921 56.98460283 -2.18589438 53.19580624 -2.18530273 49.40698242 C-2.18520107 44.54660659 -2.19885631 39.68637672 -2.21607494 34.8260355 C-2.22718068 31.09518254 -2.22922239 27.36436504 -2.22869301 23.63349724 C-2.22987517 21.84130284 -2.23431008 20.04910758 -2.24202538 18.2569294 C-2.25179696 15.75264315 -2.24895857 13.24867589 -2.24291992 10.74438477 C-2.24853943 10.00090286 -2.25415894 9.25742096 -2.25994873 8.4914093 C-2.23709986 4.77206245 -2.11950402 3.17925603 0 0 Z " fill="#111111" transform="translate(363,31)"/>
<path d="M0 0 C3.29714286 1.17755102 5.2171897 2.00369598 7.375 4.75 C8.5632968 9.02786849 8.56060798 12.62962493 6.875 16.75 C4.10434327 20.07478808 1.30795198 21.62891752 -2.9921875 22.3203125 C-6.71434117 22.53100044 -8.78862955 22.13491731 -11.9375 20.125 C-15.53631154 16.41713357 -15.26972278 13.46219429 -15.2265625 8.484375 C-14.9389947 5.33104534 -14.0287596 3.41890567 -12 1 C-8.30723866 -0.84638067 -4.03883185 -0.34689353 0 0 Z " fill="#F9F9F9" transform="translate(235,78)"/>
<path d="M0 0 C2.31 0 4.62 0 7 0 C7 0.33 7 0.66 7 1 C5.02 1 3.04 1 1 1 C1 1.99 1 2.98 1 4 C3.31 4 5.62 4 8 4 C8.33 3.34 8.66 2.68 9 2 C11.64 2.33 14.28 2.66 17 3 C17 7.95 17 12.9 17 18 C8.75 18 0.5 18 -8 18 C-8.09765625 7.16015625 -8.09765625 7.16015625 -8 4 C-7 3 -7 3 -3.9375 2.9375 C-2.4834375 2.9684375 -2.4834375 2.9684375 -1 3 C-0.67 2.01 -0.34 1.02 0 0 Z " fill="#9435EA" transform="translate(465,26)"/>
<path d="M0 0 C1.9921875 0.6328125 1.9921875 0.6328125 4.0546875 2.1953125 C5.40300974 5.70095032 5.53335231 8.96166745 4.9921875 12.6328125 C3.33112645 16.37019986 1.44621141 18.48538958 -2.0078125 20.6328125 C-7.00995791 21.39319824 -11.60238522 21.29419004 -16.1953125 19.1328125 C-16.7934375 18.6378125 -17.3915625 18.1428125 -18.0078125 17.6328125 C-17.43888153 10.52117533 -15.06225111 6.87836167 -10.3203125 1.6953125 C-6.39240881 -0.75036338 -4.44261408 -0.82270631 0 0 Z " fill="#F9F9F9" transform="translate(289.0078125,78.3671875)"/>
<path d="M0 0 C3.5625 0.3125 3.5625 0.3125 5.5 1.375 C7.1765629 4.43226176 6.92778977 6.9031288 6.5625 10.3125 C5.4375 12.25 5.4375 12.25 3.5625 13.3125 C-0.05331862 13.85102618 -1.77861489 13.73486225 -4.875 11.75 C-6.4375 9.3125 -6.4375 9.3125 -6.3125 5.6875 C-5.14951423 1.20169775 -4.66151968 0.42377452 0 0 Z " fill="#9537EA" transform="translate(425.4375,24.6875)"/>
<path d="M0 0 C0.99 0.66 1.98 1.32 3 2 C2.75 4.375 2.75 4.375 2 7 C-1.03673435 9.02677971 -3.52701711 9.24657136 -7.125 9.1875 C-7.99382812 9.18105469 -8.86265625 9.17460938 -9.7578125 9.16796875 C-12 9 -12 9 -14 8 C-13.63515574 5.44609016 -12.94055033 3.9108255 -11.5 1.75 C-7.86764478 -0.79264865 -4.3169068 -0.683709 0 0 Z " fill="#F5F5F5" transform="translate(89,77)"/>
<path d="M0 0 C5.875 0.875 5.875 0.875 7 2 C7.42357221 7.50643876 6.18222921 12.65885731 5 18 C4.34 18 3.68 18 3 18 C2.49645133 15.56318413 1.99703244 13.12564561 1.5 10.6875 C1.35691406 9.99720703 1.21382813 9.30691406 1.06640625 8.59570312 C0.47374956 5.67475227 0 2.98891878 0 0 Z " fill="#F1E4FC" transform="translate(401,69)"/>
<path d="M0 0 C0.33 0 0.66 0 1 0 C1 3.96 1 7.92 1 12 C-1.64 12 -4.28 12 -7 12 C-5.48109469 7.44328408 -3.04597738 3.68276708 0 0 Z " fill="#F5EDFD" transform="translate(402,89)"/>
<path d="M0 0 C0.66 0.66 1.32 1.32 2 2 C1.67 2.66 1.34 3.32 1 4 C-1.31 4 -3.62 4 -6 4 C-6 3.01 -6 2.02 -6 1 C-3.125 0.375 -3.125 0.375 0 0 Z " fill="#CB9DF4" transform="translate(472,26)"/>
</svg>
