<svg xmlns="http://www.w3.org/2000/svg" version="1.1" xmlns:xlink="http://www.w3.org/1999/xlink" xmlns:svgjs="http://svgjs.dev/svgjs" width="128" height="128" viewBox="0 0 128 128"><g transform="matrix(0.8046875,0,0,0.8046875,12.333870967741937,15.297507339382761)"><svg viewBox="0 0 155 147" data-background-color="#ffffff" preserveAspectRatio="xMidYMid meet" height="121" width="128" xmlns="http://www.w3.org/2000/svg" xmlns:xlink="http://www.w3.org/1999/xlink"><g id="tight-bounds" transform="matrix(1,0,0,1,0.25,0.02853260869565588)"><svg viewBox="0 0 154.5 146.9429347826087" height="146.9429347826087" width="154.5"><g><svg viewBox="0 0 154.5 146.9429347826087" height="146.9429347826087" width="154.5"><g><svg viewBox="0 0 154.5 146.9429347826087" height="146.9429347826087" width="154.5"><g id="textblocktransform"><svg viewBox="0 0 154.5 146.9429347826087" height="146.9429347826087" width="154.5" id="textblock"><g><svg viewBox="0 0 154.5 146.9429347826087" height="146.9429347826087" width="154.5"><g transform="matrix(1,0,0,1,0,0)"><svg width="154.5" viewBox="1.3 -35 36.800000000000004 35" height="146.9429347826087" data-palette-color="#471aa0"><path d="M1.3-1L3.15-1.4Q3.9-1.55 4.13-1.75 4.35-1.95 4.35-2.5L4.35-2.5 4.35-32.5Q4.35-33.05 4.13-33.25 3.9-33.45 3.15-33.6L3.15-33.6 1.3-34 1.3-35 16.6-35Q27.1-35 32.6-31.05 38.1-27.1 38.1-17.5L38.1-17.5Q38.1-7.9 32.6-3.95 27.1 0 16.6 0L16.6 0 1.3 0 1.3-1ZM14.55-33.5L14.55-1.5 16.6-1.5Q20.75-1.5 23-2.98 25.25-4.45 26.15-7.85 27.05-11.25 27.05-17.5L27.05-17.5Q27.05-23.75 26.15-27.15 25.25-30.55 23-32.02 20.75-33.5 16.6-33.5L16.6-33.5 14.55-33.5Z" opacity="1" transform="matrix(1,0,0,1,0,0)" fill="#471aa0" class="wordmark-text-0" data-fill-palette-color="primary" id="text-0"></path></svg></g></svg></g></svg></g></svg></g><g></g></svg></g><defs></defs></svg><rect width="154.5" height="146.9429347826087" fill="none" stroke="none" visibility="hidden"></rect></g></svg></g></svg>